<svg xmlns="http://www.w3.org/2000/svg" viewBox="0 0 500 500">
  <!-- Grid Background -->
  <rect width="500" height="500" fill="#000" />
  
  <!-- Vertical lines -->
  <g stroke="#0ff" stroke-width="0.5" opacity="0.2">
    <line x1="25" y1="0" x2="25" y2="500" />
    <line x1="50" y1="0" x2="50" y2="500" />
    <line x1="75" y1="0" x2="75" y2="500" />
    <line x1="100" y1="0" x2="100" y2="500" />
    <line x1="125" y1="0" x2="125" y2="500" />
    <line x1="150" y1="0" x2="150" y2="500" />
    <line x1="175" y1="0" x2="175" y2="500" />
    <line x1="200" y1="0" x2="200" y2="500" />
    <line x1="225" y1="0" x2="225" y2="500" />
    <line x1="250" y1="0" x2="250" y2="500" />
    <line x1="275" y1="0" x2="275" y2="500" />
    <line x1="300" y1="0" x2="300" y2="500" />
    <line x1="325" y1="0" x2="325" y2="500" />
    <line x1="350" y1="0" x2="350" y2="500" />
    <line x1="375" y1="0" x2="375" y2="500" />
    <line x1="400" y1="0" x2="400" y2="500" />
    <line x1="425" y1="0" x2="425" y2="500" />
    <line x1="450" y1="0" x2="450" y2="500" />
    <line x1="475" y1="0" x2="475" y2="500" />
  </g>
  
  <!-- Horizontal lines -->
  <g stroke="#f0f" stroke-width="0.5" opacity="0.2">
    <line x1="0" y1="25" x2="500" y2="25" />
    <line x1="0" y1="50" x2="500" y2="50" />
    <line x1="0" y1="75" x2="500" y2="75" />
    <line x1="0" y1="100" x2="500" y2="100" />
    <line x1="0" y1="125" x2="500" y2="125" />
    <line x1="0" y1="150" x2="500" y2="150" />
    <line x1="0" y1="175" x2="500" y2="175" />
    <line x1="0" y1="200" x2="500" y2="200" />
    <line x1="0" y1="225" x2="500" y2="225" />
    <line x1="0" y1="250" x2="500" y2="250" />
    <line x1="0" y1="275" x2="500" y2="275" />
    <line x1="0" y1="300" x2="500" y2="300" />
    <line x1="0" y1="325" x2="500" y2="325" />
    <line x1="0" y1="350" x2="500" y2="350" />
    <line x1="0" y1="375" x2="500" y2="375" />
    <line x1="0" y1="400" x2="500" y2="400" />
    <line x1="0" y1="425" x2="500" y2="425" />
    <line x1="0" y1="450" x2="500" y2="450" />
    <line x1="0" y1="475" x2="500" y2="475" />
  </g>
  
  <!-- Glowing center point -->
  <circle cx="250" cy="250" r="5" fill="#f0f" opacity="0.8">
    <animate attributeName="opacity" values="0.3;0.8;0.3" dur="4s" repeatCount="indefinite" />
  </circle>
  
  <!-- Radial glowing lines -->
  <g stroke="#0ff" stroke-width="0.8" opacity="0.4">
    <line x1="250" y1="250" x2="0" y2="0" />
    <line x1="250" y1="250" x2="500" y2="0" />
    <line x1="250" y1="250" x2="500" y2="500" />
    <line x1="250" y1="250" x2="0" y2="500" />
  </g>
</svg>